<mxfile host="app.diagrams.net" agent="Mozilla/5.0 (Windows NT 10.0; Win64; x64; rv:135.0) Gecko/20100101 Firefox/135.0" version="26.0.16">
  <diagram name="Page-1" id="bfe91b75-5d2c-26a0-9c1d-138518896778">
    <mxGraphModel dx="1313" dy="956" grid="1" gridSize="10" guides="1" tooltips="1" connect="1" arrows="1" fold="1" page="1" pageScale="1" pageWidth="1100" pageHeight="850" background="none" math="0" shadow="0">
      <root>
        <mxCell id="0" />
        <mxCell id="1" parent="0" />
        <mxCell id="7c3789c024ecab99-53" value="Internet" style="html=1;fillColor=#CCCCCC;strokeColor=#6881B3;gradientColor=none;gradientDirection=north;strokeWidth=2;shape=mxgraph.networks.cloud;fontColor=#6881B3;rounded=0;shadow=0;comic=0;align=center;fontSize=28;" parent="1" vertex="1">
          <mxGeometry x="80" y="140" width="330" height="140" as="geometry" />
        </mxCell>
        <mxCell id="GseCTgI2wIyG1fMFKfBw-1" value="" style="fontColor=#0066CC;verticalAlign=top;verticalLabelPosition=bottom;labelPosition=center;align=center;html=1;outlineConnect=0;fillColor=#CCCCCC;strokeColor=#6881B3;gradientColor=none;gradientDirection=north;strokeWidth=2;shape=mxgraph.networks.modem;" vertex="1" parent="1">
          <mxGeometry x="490" y="350" width="100" height="30" as="geometry" />
        </mxCell>
        <mxCell id="GseCTgI2wIyG1fMFKfBw-4" value="" style="shape=link;html=1;rounded=0;" edge="1" parent="1" source="7c3789c024ecab99-53" target="GseCTgI2wIyG1fMFKfBw-1">
          <mxGeometry width="100" relative="1" as="geometry">
            <mxPoint x="240" y="420" as="sourcePoint" />
            <mxPoint x="340" y="420" as="targetPoint" />
          </mxGeometry>
        </mxCell>
        <mxCell id="GseCTgI2wIyG1fMFKfBw-6" value="" style="shape=link;html=1;rounded=0;entryX=0.02;entryY=0.94;entryDx=0;entryDy=0;entryPerimeter=0;" edge="1" parent="1" source="GseCTgI2wIyG1fMFKfBw-1" target="GseCTgI2wIyG1fMFKfBw-12">
          <mxGeometry width="100" relative="1" as="geometry">
            <mxPoint x="820" y="740" as="sourcePoint" />
            <mxPoint x="761.0000000000002" y="450" as="targetPoint" />
          </mxGeometry>
        </mxCell>
        <mxCell id="GseCTgI2wIyG1fMFKfBw-7" value="&lt;div&gt;Altibox Modem&lt;/div&gt;&lt;div&gt;Bridge-Mode&lt;/div&gt;" style="text;html=1;align=center;verticalAlign=middle;resizable=0;points=[];autosize=1;strokeColor=none;fillColor=none;" vertex="1" parent="1">
          <mxGeometry x="490" y="300" width="100" height="40" as="geometry" />
        </mxCell>
        <mxCell id="GseCTgI2wIyG1fMFKfBw-8" value="&lt;div&gt;Google Wifi Router&lt;/div&gt;&lt;div&gt;&quot;Hovedenhet&quot;&lt;/div&gt;" style="text;html=1;align=center;verticalAlign=middle;resizable=0;points=[];autosize=1;strokeColor=none;fillColor=none;" vertex="1" parent="1">
          <mxGeometry x="740" y="413" width="120" height="40" as="geometry" />
        </mxCell>
        <mxCell id="GseCTgI2wIyG1fMFKfBw-9" value="" style="fontColor=#0066CC;verticalAlign=top;verticalLabelPosition=bottom;labelPosition=center;align=center;html=1;outlineConnect=0;fillColor=#CCCCCC;strokeColor=#6881B3;gradientColor=none;gradientDirection=north;strokeWidth=2;shape=mxgraph.networks.switch;" vertex="1" parent="1">
          <mxGeometry x="760" y="570" width="100" height="30" as="geometry" />
        </mxCell>
        <mxCell id="GseCTgI2wIyG1fMFKfBw-10" value="" style="shape=link;html=1;rounded=0;exitX=0.5;exitY=0;exitDx=0;exitDy=0;exitPerimeter=0;" edge="1" parent="1" source="GseCTgI2wIyG1fMFKfBw-9" target="GseCTgI2wIyG1fMFKfBw-12">
          <mxGeometry width="100" relative="1" as="geometry">
            <mxPoint x="490" y="520" as="sourcePoint" />
            <mxPoint x="800" y="480" as="targetPoint" />
          </mxGeometry>
        </mxCell>
        <mxCell id="GseCTgI2wIyG1fMFKfBw-11" value="Switch" style="text;html=1;align=center;verticalAlign=middle;resizable=0;points=[];autosize=1;strokeColor=none;fillColor=none;" vertex="1" parent="1">
          <mxGeometry x="740" y="530" width="60" height="30" as="geometry" />
        </mxCell>
        <mxCell id="GseCTgI2wIyG1fMFKfBw-12" value="" style="fontColor=#0066CC;verticalAlign=top;verticalLabelPosition=bottom;labelPosition=center;align=center;html=1;outlineConnect=0;fillColor=#CCCCCC;strokeColor=#6881B3;gradientColor=none;gradientDirection=north;strokeWidth=2;shape=mxgraph.networks.wireless_hub;" vertex="1" parent="1">
          <mxGeometry x="760" y="391" width="100" height="85" as="geometry" />
        </mxCell>
        <mxCell id="GseCTgI2wIyG1fMFKfBw-13" value="" style="shape=link;html=1;rounded=0;exitX=0;exitY=0.7;exitDx=0;exitDy=0;exitPerimeter=0;" edge="1" parent="1" source="GseCTgI2wIyG1fMFKfBw-15" target="GseCTgI2wIyG1fMFKfBw-9">
          <mxGeometry width="100" relative="1" as="geometry">
            <mxPoint x="370" y="600" as="sourcePoint" />
            <mxPoint x="470" y="600" as="targetPoint" />
          </mxGeometry>
        </mxCell>
        <mxCell id="GseCTgI2wIyG1fMFKfBw-14" value="" style="fontColor=#0066CC;verticalAlign=top;verticalLabelPosition=bottom;labelPosition=center;align=center;html=1;outlineConnect=0;fillColor=#CCCCCC;strokeColor=#6881B3;gradientColor=none;gradientDirection=north;strokeWidth=2;shape=mxgraph.networks.wireless_hub;" vertex="1" parent="1">
          <mxGeometry x="940" y="661" width="100" height="85" as="geometry" />
        </mxCell>
        <mxCell id="GseCTgI2wIyG1fMFKfBw-15" value="" style="fontColor=#0066CC;verticalAlign=top;verticalLabelPosition=bottom;labelPosition=center;align=center;html=1;outlineConnect=0;fillColor=#CCCCCC;strokeColor=#6881B3;gradientColor=none;gradientDirection=north;strokeWidth=2;shape=mxgraph.networks.wireless_hub;" vertex="1" parent="1">
          <mxGeometry x="760" y="661" width="100" height="85" as="geometry" />
        </mxCell>
        <mxCell id="GseCTgI2wIyG1fMFKfBw-16" style="edgeStyle=orthogonalEdgeStyle;rounded=0;orthogonalLoop=1;jettySize=auto;html=1;exitX=0.5;exitY=1;exitDx=0;exitDy=0;exitPerimeter=0;" edge="1" parent="1" source="GseCTgI2wIyG1fMFKfBw-15" target="GseCTgI2wIyG1fMFKfBw-15">
          <mxGeometry relative="1" as="geometry" />
        </mxCell>
        <mxCell id="GseCTgI2wIyG1fMFKfBw-17" value="" style="shape=link;html=1;rounded=0;entryX=0.9;entryY=1;entryDx=0;entryDy=0;entryPerimeter=0;exitX=0;exitY=0.7;exitDx=0;exitDy=0;exitPerimeter=0;" edge="1" parent="1" source="GseCTgI2wIyG1fMFKfBw-14" target="GseCTgI2wIyG1fMFKfBw-9">
          <mxGeometry width="100" relative="1" as="geometry">
            <mxPoint x="510" y="700" as="sourcePoint" />
            <mxPoint x="610" y="700" as="targetPoint" />
          </mxGeometry>
        </mxCell>
        <mxCell id="GseCTgI2wIyG1fMFKfBw-18" value="&lt;div&gt;Google Wifi&lt;/div&gt;&lt;div&gt;&quot;Aksesspunkt&quot;&lt;/div&gt;" style="text;html=1;align=center;verticalAlign=middle;resizable=0;points=[];autosize=1;strokeColor=none;fillColor=none;" vertex="1" parent="1">
          <mxGeometry x="760" y="750" width="100" height="40" as="geometry" />
        </mxCell>
        <mxCell id="GseCTgI2wIyG1fMFKfBw-19" value="&lt;div&gt;Google Wifi&lt;/div&gt;&lt;div&gt;&quot;Aksesspunkt&quot;&lt;/div&gt;" style="text;html=1;align=center;verticalAlign=middle;resizable=0;points=[];autosize=1;strokeColor=none;fillColor=none;" vertex="1" parent="1">
          <mxGeometry x="930" y="746" width="100" height="40" as="geometry" />
        </mxCell>
        <mxCell id="GseCTgI2wIyG1fMFKfBw-22" value="" style="fontColor=#0066CC;verticalAlign=top;verticalLabelPosition=bottom;labelPosition=center;align=center;html=1;outlineConnect=0;fillColor=#CCCCCC;strokeColor=#6881B3;gradientColor=none;gradientDirection=north;strokeWidth=2;shape=mxgraph.networks.rack;" vertex="1" parent="1">
          <mxGeometry x="540" y="661" width="20" height="50" as="geometry" />
        </mxCell>
        <mxCell id="GseCTgI2wIyG1fMFKfBw-23" value="" style="shape=link;html=1;rounded=0;" edge="1" parent="1" source="GseCTgI2wIyG1fMFKfBw-22" target="GseCTgI2wIyG1fMFKfBw-9">
          <mxGeometry width="100" relative="1" as="geometry">
            <mxPoint x="510" y="700" as="sourcePoint" />
            <mxPoint x="610" y="700" as="targetPoint" />
          </mxGeometry>
        </mxCell>
        <mxCell id="GseCTgI2wIyG1fMFKfBw-36" value="" style="html=1;outlineConnect=0;fillColor=#CCCCCC;strokeColor=#6881B3;gradientColor=none;gradientDirection=north;strokeWidth=2;shape=mxgraph.networks.comm_link_edge;html=1;rounded=0;entryX=0;entryY=0.5;entryDx=0;entryDy=0;entryPerimeter=0;exitX=1;exitY=0.5;exitDx=0;exitDy=0;exitPerimeter=0;" edge="1" parent="1" source="GseCTgI2wIyG1fMFKfBw-37" target="GseCTgI2wIyG1fMFKfBw-22">
          <mxGeometry width="100" height="100" relative="1" as="geometry">
            <mxPoint x="350" y="761" as="sourcePoint" />
            <mxPoint x="450" y="661" as="targetPoint" />
          </mxGeometry>
        </mxCell>
        <mxCell id="GseCTgI2wIyG1fMFKfBw-37" value="" style="fontColor=#0066CC;verticalAlign=top;verticalLabelPosition=bottom;labelPosition=center;align=center;html=1;outlineConnect=0;fillColor=#CCCCCC;strokeColor=#6881B3;gradientColor=none;gradientDirection=north;strokeWidth=2;shape=mxgraph.networks.rack;" vertex="1" parent="1">
          <mxGeometry x="235" y="680" width="25" height="47" as="geometry" />
        </mxCell>
        <mxCell id="GseCTgI2wIyG1fMFKfBw-39" value="&lt;div&gt;Powerline adapter&lt;/div&gt;&lt;div&gt;til garasjen&lt;/div&gt;" style="text;html=1;align=center;verticalAlign=middle;resizable=0;points=[];autosize=1;strokeColor=none;fillColor=none;" vertex="1" parent="1">
          <mxGeometry x="320" y="610" width="120" height="40" as="geometry" />
        </mxCell>
        <mxCell id="GseCTgI2wIyG1fMFKfBw-40" value="Sykling pågår" style="shape=umlActor;verticalLabelPosition=bottom;verticalAlign=top;html=1;outlineConnect=0;" vertex="1" parent="1">
          <mxGeometry x="100" y="621" width="90" height="130" as="geometry" />
        </mxCell>
      </root>
    </mxGraphModel>
  </diagram>
</mxfile>
